# xmcd
#
# Track frame offsets:
# 183
# 12148
# 25780
# 37798
# 62415
# 73720
# 84270
# 96360
# 108460
# 120435
# 133488
# 145513
# 159395
# 174355
#
# Disc length: 2506 seconds
#
# Revision: 1
# Processed by: cddbd v1.4PL0 Copyright (c) Steve Scherf et al.
# Submitted via: CedeCatalogueitor 2.5 http://usuarios.lycos.es/kakasboy
#
DISCID=a809c80e
DTITLE=Memphis Slim - Slim´s Blues
DYEAR=1900
DGENRE=
TTITLE0=Mother Earth
TTITLE1=Sum´s Blues
TTITLE2=Really Got The Blues
TTITLE3=Fattening Frogs For Snakes
TTITLE4=Feelin´ Low
TTITLE5=Havin´ Fun
TTITLE6=Rockin´The Pad
TTITLE7=Trouble Trouble
TTITLE8=Reverend Bounce
TTITLE9=Tijuana
TTITLE10=For A Day
TTITLE11=I Guess I´m A Fool
TTITLE12=I´m Crying
TTITLE13=My Baby
EXTD=
EXTT0=
EXTT1=
EXTT2=
EXTT3=
EXTT4=
EXTT5=
EXTT6=
EXTT7=
EXTT8=
EXTT9=
EXTT10=
EXTT11=
EXTT12=
EXTT13=
PLAYORDER=
